<?xml version="1.0"?><svg xmlns="http://www.w3.org/2000/svg"  viewBox="0 0 24 24" width="24px" height="24px">    <path d="M 16.759766 3 C 16.131766 3 15.656391 3.5646406 15.775391 4.1816406 C 15.889391 4.7746406 16.031016 5.552875 16.166016 6.421875 C 17.508016 8.548875 19.682625 12.573891 20.640625 17.587891 C 20.840625 16.193891 21 14.358734 21 12.052734 C 21 8.5127344 20.35925 5.2282969 20.03125 3.7792969 C 19.92725 3.3222969 19.522687 3 19.054688 3 L 16.759766 3 z M 9.7988281 6 C 9.3308281 6 8.9162187 6.32225 8.8242188 6.78125 C 8.7102188 7.35025 8.5182188 8.0456094 8.1992188 8.8496094 C 8.4322188 9.1756094 9.7707187 11.194203 11.011719 15.908203 C 11.299719 15.026203 12.100375 13.193 12.359375 12.25 C 13.391375 14.661 14.348484 17.464891 14.646484 20.087891 C 14.705484 20.602891 15.121625 21 15.640625 21 L 17.972656 21 C 18.576656 21 19.034797 20.469141 18.966797 19.869141 C 18.210797 13.191141 14.818484 7.9187813 13.771484 6.4257812 C 13.583484 6.1577813 13.278172 6 12.951172 6 L 9.7988281 6 z M 3.6503906 10 C 2.9173906 10 2.4290937 10.765781 2.7460938 11.425781 C 3.3620937 12.709781 4.2259687 14.766938 4.7929688 17.210938 C 4.8999688 17.668938 5.2975781 18 5.7675781 18 L 8.1953125 18 C 8.8483125 18 9.3260625 17.375188 9.1640625 16.742188 C 8.2810625 13.281188 7.347 11.346813 6.875 10.507812 C 6.697 10.191812 6.3669062 10 6.0039062 10 L 3.6503906 10 z"/></svg>